<svg xmlns="http://www.w3.org/2000/svg" viewBox="0 0 2000 2120"><g id="l1uRep9t48b2U18RmnkReGT" fill="rgb(109,109,109)" style="transform: none;"><g style="transform: none;"><path id="pAYrObCTN" d="M875 2034 c-86 -13 -137 -27 -141 -39 -3 -7 8 -39 24 -71 51 -101 101 -266 124 -404 14 -89 21 -571 9 -645 -11 -69 -3 -85 33 -65 17 9 47 11 95 8 l71 -5 0 219 c0 229 1 223 -45 230 -15 2 -21 -3 -23 -24 -2 -20 1 -28 12 -28 13 0 16 -14 16 -80 0 -58 -4 -80 -13 -80 -7 0 -17 -10 -22 -22 -6 -13 -17 -23 -25 -23 -13 0 -15 32 -18 218 -2 217 -2 218 18 207 12 -6 40 -10 63 -8 40 3 42 5 45 38 11 146 54 315 114 448 15 35 28 67 28 72 0 4 -30 18 -67 30 -67 21 -231 34 -298 24z m223 -53 c41 -11 75 -21 77 -23 2 -2 -4 -19 -14 -38 -9 -19 -27 -71 -40 -115 -13 -44 -27 -93 -32 -109 -5 -16 -10 -41 -11 -55 -1 -14 -5 35 -8 109 l-5 135 -71 3 c-99 4 -99 3 -85 -154 6 -70 9 -129 7 -131 -2 -3 -10 22 -16 54 -15 73 -63 221 -90 273 l-20 40 22 4 c13 3 41 9 63 14 65 16 145 13 223 -7z m-80 -133 c13 -13 17 -164 6 -205 -3 -12 -15 -23 -28 -25 -18 -3 -22 -11 -26 -58 -4 -39 -8 -6 -14 112 -4 92 -5 171 -1 177 8 15 48 14 63 -1z m47 -315 c-8 -65 -14 -77 -38 -67 -13 5 -17 19 -17 59 0 51 1 54 28 58 15 2 29 5 31 6 2 0 0 -25 -4 -56z m-15 -612 l0 -49 -60 -4 c-66 -3 -66 -2 -54 60 6 29 9 31 58 35 28 2 52 4 54 5 1 1 2 -20 2 -47z"></path><path id="p8FLzOXMG" d="M634 1901 c-176 -76 -346 -220 -431 -366 -84 -144 -143 -342 -143 -480 0 -95 37 -255 84 -367 55 -128 203 -308 319 -387 62 -42 187 -104 195 -96 3 3 -1 20 -10 38 -75 144 -58 321 42 448 17 21 62 58 99 81 l68 42 7 80 c3 45 6 116 6 159 0 71 -1 77 -21 77 -11 0 -50 -14 -86 -30 -187 -87 -327 -229 -358 -364 l-12 -51 -8 38 c-17 88 12 191 79 282 68 91 190 186 301 234 105 45 100 39 97 112 -3 71 -22 190 -32 202 -10 12 -97 -25 -195 -82 -85 -49 -166 -121 -223 -199 -50 -67 -64 -94 -101 -187 l-20 -50 0 47 c-2 93 51 239 117 328 82 110 212 207 355 264 36 15 51 46 27 61 -5 3 -10 13 -10 22 0 8 -6 29 -14 46 -7 18 -21 51 -31 74 -10 23 -23 44 -29 46 -6 2 -38 -8 -72 -22z m74 -83 c39 -98 39 -100 -15 -122 -87 -36 -166 -89 -243 -166 -131 -129 -188 -254 -197 -427 l-6 -103 36 0 c37 0 67 21 67 46 0 41 92 193 157 261 78 80 255 192 287 180 8 -3 16 -30 19 -68 11 -101 10 -108 -19 -115 -49 -12 -149 -66 -216 -116 -146 -107 -226 -233 -235 -367 -3 -43 -3 -99 1 -125 l7 -46 45 0 c43 0 44 1 44 33 1 55 58 157 129 227 34 34 129 100 195 136 l69 38 -6 -85 c-4 -46 -7 -98 -7 -115 0 -27 -8 -36 -65 -73 -93 -61 -149 -134 -181 -240 -16 -53 -19 -217 -4 -256 11 -30 14 -31 -74 28 -170 114 -308 313 -359 513 -32 127 -40 203 -28 268 53 279 151 456 338 607 66 52 206 136 234 138 3 1 15 -23 27 -51z"></path><path id="pRsbEquUb" d="M1263 1882 c-32 -56 -74 -175 -66 -182 5 -4 31 -16 58 -26 96 -35 188 -97 280 -189 89 -89 117 -131 157 -239 21 -58 37 -210 17 -166 -44 95 -74 156 -81 165 -5 5 -20 24 -34 40 -14 17 -32 40 -41 52 -48 71 -304 223 -374 223 -38 0 -64 -201 -64 -504 l0 -229 64 -33 c83 -43 144 -104 184 -184 30 -61 32 -70 32 -180 0 -98 -3 -121 -22 -157 -11 -24 -17 -45 -13 -48 13 -8 149 70 200 115 93 81 90 71 65 223 -15 91 -27 137 -51 195 -8 18 -14 38 -14 45 0 19 -79 136 -124 185 -21 23 -65 59 -98 79 -57 37 -59 39 -52 73 4 19 10 52 13 73 l6 38 50 -32 c28 -18 86 -69 130 -113 73 -74 87 -94 152 -226 39 -80 81 -179 93 -220 12 -41 26 -79 30 -83 4 -4 21 18 38 50 121 228 140 478 56 731 -68 205 -254 415 -459 518 -97 49 -108 50 -132 6z m114 -53 c82 -44 134 -82 202 -145 265 -245 351 -618 220 -943 -25 -59 -20 -60 -49 14 -26 67 -117 246 -149 294 -79 115 -234 241 -298 241 -29 0 -33 -4 -42 -37 -6 -21 -13 -70 -17 -109 l-7 -72 54 -35 c68 -43 142 -117 184 -182 57 -88 115 -277 115 -375 0 -46 -3 -52 -44 -86 -25 -20 -58 -46 -75 -57 l-31 -19 6 74 c16 188 -71 356 -227 436 l-54 29 0 234 c0 200 14 401 29 416 2 2 12 0 23 -5 10 -6 43 -22 73 -37 141 -69 271 -194 333 -317 21 -41 37 -80 37 -89 0 -26 22 -39 68 -39 l43 0 -7 88 c-8 104 -42 215 -90 294 -70 116 -222 243 -354 297 -30 13 -58 26 -63 30 -11 11 38 131 54 131 5 0 34 -14 66 -31z"></path><path id="p1LvKJW9S" d="M900 760 c-110 -52 -167 -101 -205 -174 -19 -36 -46 -137 -39 -148 3 -4 7 -31 9 -59 10 -111 102 -225 219 -271 59 -23 70 -25 82 -13 15 14 43 10 55 -8 4 -6 37 2 80 19 92 36 167 105 205 189 39 84 39 198 0 276 -36 74 -97 136 -165 167 -45 21 -72 27 -141 28 -47 0 -92 -2 -100 -6z m47 -147 c-3 -2 -17 2 -32 10 l-27 14 28 22 29 23 3 -32 c2 -18 1 -34 -1 -37z m123 41 c21 -21 22 -27 10 -34 -32 -21 -50 -12 -50 25 0 42 8 44 40 9z m215 -161 c5 -27 3 -33 -10 -33 -18 0 -21 8 -29 75 l-6 50 19 -30 c10 -16 22 -45 26 -62z m-541 45 c-11 -69 -15 -78 -30 -78 -11 0 -14 6 -8 23 12 39 33 87 38 87 3 0 3 -15 0 -32z m151 -12 c42 -11 50 -17 50 -37 0 -22 -4 -24 -62 -27 -58 -3 -63 -1 -63 18 0 18 16 61 23 60 1 -1 25 -7 52 -14z m269 -39 l7 -28 -68 3 c-66 3 -68 4 -71 31 -3 24 0 27 30 28 18 1 44 4 58 8 27 8 33 2 44 -42z m-430 -119 c3 -7 7 -29 10 -48 6 -32 5 -33 -7 -15 -19 28 -30 75 -17 75 6 0 12 -6 14 -12z m214 -16 c2 -12 -2 -24 -10 -26 -91 -25 -95 -24 -107 9 -6 17 -11 35 -11 39 0 4 28 6 63 4 56 -3 62 -5 65 -26z m208 -4 c-3 -17 -7 -33 -9 -34 -1 -1 -27 1 -57 4 -51 6 -55 9 -58 35 l-3 27 67 0 67 0 -7 -32z m124 7 c-14 -36 -40 -85 -45 -85 -2 0 0 12 5 26 6 14 10 39 10 55 0 22 5 29 20 29 17 0 18 -4 10 -25z m-330 -150 c0 -26 0 -26 -24 -8 -16 12 -20 20 -12 25 22 15 36 8 36 -17z m130 18 c0 -10 -32 -43 -42 -43 -4 0 -8 11 -8 25 0 20 5 25 25 25 14 0 25 -3 25 -7z"></path></g></g><g id="l6G0Nt1K6Khfk2TvLix6bXx" fill="rgb(255,255,255)" style="transform: none;"><g style="transform: none;"><path id="pdPDEaDXn" d="M813 2012 c-40 -8 -73 -19 -73 -24 0 -5 14 -36 30 -69 61 -120 112 -305 130 -474 12 -112 13 -414 2 -547 -8 -88 -2 -104 25 -77 14 14 98 17 131 6 l22 -8 0 216 0 216 -27 -3 -28 -3 -5 -125 -5 -125 -25 0 -25 0 -7 325 c-4 179 -11 368 -16 420 -12 112 -7 122 52 118 l41 -3 0 -120 0 -120 -27 -3 -28 -3 0 -84 c0 -66 3 -84 16 -89 22 -8 82 -7 87 2 3 4 10 49 16 100 17 136 51 259 102 370 16 35 29 64 29 66 0 6 -54 25 -116 41 -75 18 -203 17 -301 -3z"></path><path id="pPnjAhf1v" d="M625 1887 c-226 -103 -381 -260 -477 -484 -39 -91 -78 -261 -78 -342 0 -91 37 -259 78 -354 88 -207 235 -363 439 -466 64 -32 74 -31 49 4 -23 34 -46 130 -46 192 0 139 71 263 194 343 l63 41 7 91 c8 114 8 203 0 211 -3 3 -14 2 -23 -2 -9 -5 -38 -18 -66 -31 -57 -25 -165 -96 -211 -137 -80 -73 -143 -179 -144 -240 0 -52 -27 -42 -36 12 -22 147 63 305 230 430 68 51 186 115 212 115 33 0 40 26 32 116 -10 120 -17 154 -31 154 -7 0 -32 -8 -57 -18 -148 -58 -269 -152 -352 -270 -35 -50 -83 -146 -92 -183 -3 -15 -13 -30 -22 -33 -15 -6 -16 1 -11 68 20 237 199 462 450 566 31 13 57 27 57 32 0 20 -81 218 -89 217 -3 0 -38 -15 -76 -32z"></path><path id="pyTE3DwBG" d="M1272 1883 c-10 -16 -31 -61 -45 -101 l-27 -73 58 -25 c99 -44 135 -64 208 -119 114 -88 193 -193 235 -315 25 -76 41 -200 24 -200 -16 0 -35 22 -35 39 0 34 -77 166 -133 227 -99 107 -279 221 -362 227 -24 2 -29 -3 -35 -28 -21 -87 -31 -250 -28 -459 l3 -229 54 -29 c147 -75 245 -251 226 -403 -8 -56 -31 -133 -47 -152 -38 -46 147 66 224 135 l38 34 -6 72 c-11 146 -60 310 -119 401 -42 65 -116 139 -183 182 -52 34 -52 34 -46 76 3 23 10 59 15 80 l10 38 41 -23 c59 -33 183 -152 228 -218 22 -32 62 -106 91 -166 66 -140 65 -137 85 -214 l18 -65 42 90 c61 129 84 235 84 392 0 127 -15 214 -53 319 -78 214 -262 409 -480 508 -32 14 -59 26 -62 26 -2 0 -12 -12 -23 -27z"></path><path id="p7yllCGgm" d="M855 729 c-84 -42 -94 -53 -70 -79 24 -26 26 -26 50 11 11 17 40 46 64 65 54 42 36 43 -44 3z"></path><path id="pMkIUgvBd" d="M1077 731 c22 -16 53 -45 70 -66 31 -37 31 -37 57 -20 25 17 26 19 9 37 -20 22 -133 78 -158 78 -12 0 -5 -10 22 -29z"></path><path id="p1B4TmkmoR" d="M915 711 c-28 -21 -58 -52 -67 -69 l-18 -29 43 -16 c23 -9 56 -17 72 -19 l30 -3 3 79 c2 44 -1 83 -5 87 -4 4 -31 -9 -58 -30z"></path><path id="pA059Czm0" d="M1002 663 l3 -88 45 3 c24 2 59 11 77 21 l33 16 -31 38 c-28 33 -109 97 -124 97 -3 0 -4 -39 -3 -87z"></path><path id="pKEwCiAoM" d="M1216 624 c-26 -23 -27 -27 -16 -54 7 -16 15 -53 19 -82 l6 -53 44 -3 c59 -4 66 5 51 70 -9 40 -64 150 -74 148 0 0 -14 -12 -30 -26z"></path><path id="pSydHaW7s" d="M720 611 c-27 -39 -50 -106 -50 -147 0 -34 1 -34 44 -34 49 0 50 0 61 85 4 28 11 58 17 68 7 14 5 24 -8 38 -24 26 -39 24 -64 -10z"></path><path id="p13o8IcuOV" d="M802 557 c-6 -18 -15 -54 -18 -80 l-7 -48 99 3 99 3 3 53 c2 37 -1 53 -10 55 -7 2 -42 14 -78 25 -36 12 -67 22 -70 22 -4 0 -11 -15 -18 -33z"></path><path id="pQM5zsUhW" d="M1127 574 c-15 -8 -50 -18 -78 -21 l-50 -6 3 -56 3 -56 94 -3 c52 -1 98 1 104 7 12 12 -23 151 -38 151 -5 -1 -23 -8 -38 -16z"></path><path id="pA22ZYDGS" d="M670 388 c0 -40 33 -117 69 -164 l17 -21 29 23 c25 20 27 25 15 39 -8 9 -19 44 -25 78 l-11 62 -47 3 c-43 3 -47 1 -47 -20z"></path><path id="p1Cxw0zRO0" d="M785 369 c4 -23 14 -58 22 -77 11 -28 18 -33 36 -29 19 5 89 23 125 33 9 3 12 20 10 56 l-3 53 -98 3 -99 3 7 -42z"></path><path id="pFPghScy9" d="M1002 353 l3 -58 45 -6 c25 -3 58 -11 73 -17 16 -7 32 -12 37 -12 11 0 51 130 44 142 -3 4 -50 8 -105 8 l-100 0 3 -57z"></path><path id="pm6UVve4M" d="M1220 380 c0 -16 -9 -53 -21 -82 l-20 -52 23 -18 c13 -10 28 -18 33 -18 22 0 75 99 90 168 l7 32 -56 0 c-55 0 -56 0 -56 -30z"></path><path id="p1GTnSTYVi" d="M888 253 c-27 -9 -48 -19 -48 -22 0 -19 107 -111 128 -111 8 0 12 25 12 75 0 71 -1 75 -22 74 -13 0 -44 -7 -70 -16z"></path><path id="p162wptW4q" d="M1000 191 c0 -44 4 -81 8 -81 20 0 132 98 132 116 0 19 -28 32 -88 40 l-52 7 0 -82z"></path><path id="p1DDDG0TEL" d="M798 206 c-28 -21 -22 -31 41 -65 71 -37 109 -43 65 -9 -16 13 -42 37 -59 55 -26 28 -32 31 -47 19z"></path><path id="p19K3fLElu" d="M1136 184 c-15 -19 -42 -44 -60 -55 -28 -17 -29 -19 -8 -19 29 0 84 23 124 51 l31 22 -23 19 c-30 24 -30 24 -64 -18z"></path></g></g></svg>